<?xml version="1.0" encoding="UTF-8"?>
<svg version="1.1" xmlns="http://www.w3.org/2000/svg" width="1024" height="1024">
<path d="M0 0 C0.70838684 -0.08290271 1.41677369 -0.16580543 2.1466268 -0.25122035 C105.37622618 -12.33154525 210.13924373 -18.82065367 493.50691083 57.81821323 C501.94399882 64.59375021 510.00737983 71.76763621 517.9914093 79.06710815 C518.60283376 79.621309 519.21425821 80.17550985 519.84421068 80.74650466 C590.54097095 144.85536656 613.84513209 226.52795066 623.91508251 363.36902606 C628.29471401 455.11285347 627.15645639 546.9828055 615.26263891 823.47141255 C615.17019596 824.93306027 615.07793317 826.3947194 614.98585244 827.85638999 C614.42643211 836.73605026 613.85108545 845.61437935 613.2471751 854.49114005 C613.08287674 856.91405785 612.92134589 859.3371653 612.76291995 861.76047416 C610.58438782 894.80868706 610.58438782 894.80868706 604.4289093 906.25460815 C604.08408508 906.91775024 603.73926086 907.58089233 603.38398743 908.26412964 C600.10999023 914.30148039 596.01311117 919.19506466 591.0539093 923.94210815 C590.46480774 924.56214722 589.87570618 925.18218628 589.26875305 925.8210144 C585.16456008 929.85304574 580.49298654 932.55266439 575.4289093 935.19210815 C574.81459045 935.52162476 574.20027161 935.85114136 573.56733704 936.19064331 C559.8325002 942.99282343 544.85588896 942.37117456 529.94577026 942.32305908 C527.60561386 942.32651951 525.26545908 942.33128665 522.92530769 942.33724082 C517.19086388 942.3484218 511.45654557 942.34575174 505.72210017 942.33708852 C498.84669028 942.32748477 491.97132757 942.3353815 485.09592 942.34372426 C471.62637326 942.3594911 458.15686932 942.35816438 444.68731855 942.34948752 C432.89904374 942.3419313 421.11078459 942.33997519 409.32250786 942.34355545 C408.53958846 942.34378461 407.75666906 942.34401376 406.95002483 942.34424986 C403.77163271 942.34518393 400.5932406 942.34613913 397.4148485 942.34712915 C367.6174651 942.35629986 337.8201089 942.34799591 308.02272971 942.33183846 C281.57013633 942.31760374 255.11758628 942.31887509 228.66499329 942.33322144 C198.9225013 942.34929824 169.18003334 942.355648 139.43753761 942.34638464 C136.26473392 942.34542254 133.09193022 942.34448402 129.91912651 942.34355545 C129.13794254 942.34331822 128.35675857 942.34308099 127.55190235 942.34283657 C115.77393988 942.33942934 103.99599481 942.34340531 92.21803474 942.35099411 C78.8203292 942.35958368 65.422673 942.35740235 52.02497358 942.34115188 C45.19176696 942.33313626 38.35864036 942.32977097 31.52543449 942.34009933 C25.26516609 942.34906552 19.00506661 942.34408147 12.74481343 942.32816668 C10.48522393 942.32482704 8.22562003 942.32649445 5.96603984 942.33379404 C-24.04489217 942.42327608 -24.04489217 942.42327608 -37.2585907 935.31710815 C-37.92173279 934.97228394 -38.58487488 934.62745972 -39.26811218 934.27218628 C-45.30546293 930.99818909 -50.1990472 926.90131002 -54.9460907 921.94210815 C-55.87614929 921.05845581 -55.87614929 921.05845581 -56.82499695 920.1569519 C-60.85702829 916.05275893 -63.55664693 911.38118539 -66.1960907 906.31710815 C-66.5256073 905.70278931 -66.8551239 905.08847046 -67.19462585 904.45553589 C-72.62395111 893.49274232 -73.38964431 881.43545407 -73.32361412 869.40824223 C-73.32675182 867.99289399 -73.33120169 866.57754817 -73.33682722 865.16220763 C-73.34842939 861.29753953 -73.34156213 857.4330985 -73.33149336 853.5684344 C-73.32384668 849.35458016 -73.33367743 845.14075931 -73.34122336 840.92690986 C-73.35203586 833.54963268 -73.35174364 826.17242141 -73.34408188 818.79514122 C-73.33271945 807.82469206 -73.33854345 796.85429834 -73.3477068 785.88384953 C-73.3634952 766.28868125 -73.36213832 746.69354232 -73.35347006 727.09837125 C-73.34592134 709.94961534 -73.34395425 692.80087019 -73.34753799 675.65211296 C-73.34776715 674.51428879 -73.3479963 673.37646461 -73.3482324 672.20416092 C-73.34916643 667.58527029 -73.35012163 662.96637967 -73.3511117 658.34748905 C-73.36028749 615.02374985 -73.35197033 571.70002933 -73.335821 528.37629301 C-73.32158529 489.89358271 -73.32285741 451.41090218 -73.33720398 412.92819214 C-73.35327148 369.68484777 -73.35963577 326.44151992 -73.35036719 283.19817299 C-73.34940505 278.5874217 -73.34846653 273.97667041 -73.34753799 269.36591911 C-73.34730076 268.23064862 -73.34706353 267.09537812 -73.34681911 265.92570549 C-73.34340809 248.78926241 -73.34739494 231.65283127 -73.35497665 214.51638985 C-73.36355563 195.0288158 -73.36140739 175.5412757 -73.34513442 156.05370588 C-73.33632948 145.15002069 -73.33574488 134.246409 -73.34707295 123.34272572 C-73.35380776 116.05598031 -73.34959954 108.76929374 -73.33655864 101.48255704 C-73.32943448 97.33321248 -73.32695674 93.18401376 -73.33777659 89.03467388 C-73.34753893 85.25220313 -73.34324877 81.47000626 -73.32823461 77.68755508 C-73.32383703 75.70243765 -73.33397918 73.71730377 -73.34489745 71.7322115 C-73.27258407 60.08373812 -71.91778758 48.03649216 -66.3210907 37.62960815 C-65.97626648 36.96646606 -65.63144226 36.30332397 -65.27616882 35.62008667 C-62.00217163 29.58273592 -57.90529256 24.68915165 -52.9460907 19.94210815 C-52.35698914 19.32206909 -51.76788757 18.70203003 -51.16093445 18.0632019 C-47.05674147 14.03117056 -42.38516793 11.33155192 -37.3210907 8.69210815 C-36.70677185 8.36259155 -36.092453 8.03307495 -35.45951843 7.693573 C-24.62123983 2.3259138 -11.86235064 1.35699424 0 0 Z " fill="#2583FB" transform="translate(242.9460906982422,40.057891845703125)"/>
<path d="M0 0 C7.8750454 6.75003891 7.8750454 6.75003891 11.40647793 10.28063679 C12.21114606 11.08269718 13.0158142 11.88475756 13.84486622 12.71112281 C14.70772159 13.57620891 15.57057696 14.441295 16.45957947 15.33259583 C17.39252683 16.26398319 18.32547419 17.19537056 19.28669268 18.15498179 C21.86127979 20.72541319 24.43276172 23.2989311 27.00371802 25.87299335 C29.78232819 28.65387257 32.56382228 31.43186474 35.34494019 34.2102356 C40.78511586 39.64597174 46.22259335 45.08439914 51.65909826 50.52380631 C56.07500069 54.94196851 60.49187989 59.35915201 64.90945625 63.77564049 C65.53851483 64.40454583 66.1675734 65.03345117 66.81569435 65.68141424 C68.09360038 66.95900054 69.37150865 68.2365846 70.64941914 69.51416644 C82.62137959 81.48327779 94.59027701 93.45544834 106.55812443 105.4286721 C116.83624649 115.71126822 127.11699676 125.99123048 137.3996582 136.26928711 C149.3397841 148.20406846 161.27829526 160.1404612 173.21421152 172.07945269 C174.48522362 173.35078334 175.7562378 174.6221119 177.0272541 175.89343834 C177.65264222 176.51898073 178.27803034 177.14452312 178.92236961 177.78902135 C183.33881724 182.206334 187.75642748 186.62248194 192.17448235 191.03818703 C197.55064633 196.41155444 202.92504133 201.78668352 208.29713499 207.16412041 C211.04016129 209.90978466 213.78399921 212.65462507 216.52998924 215.39732552 C219.49913192 218.36296481 222.46442376 221.33242379 225.42930603 224.30232239 C226.30777646 225.17856209 227.18624688 226.05480179 228.09133762 226.95759422 C228.87775153 227.74661587 229.66416543 228.53563752 230.47441006 229.34856892 C231.16018767 230.03450888 231.84596528 230.72044884 232.55252403 231.42717487 C234 233 234 233 234 234 C156.78 234 79.56 234 0 234 C0 156.78 0 79.56 0 0 Z " fill="#0066DA" transform="translate(619,43)"/>
<path d="M0 0 C126.72 0 253.44 0 384 0 C384 17.82 384 35.64 384 54 C257.28 54 130.56 54 0 54 C0 36.18 0 18.36 0 0 Z " fill="#FBFDFE" transform="translate(320,533)"/>
<path d="M0 0 C126.72 0 253.44 0 384 0 C384 17.82 384 35.64 384 54 C257.28 54 130.56 54 0 54 C0 36.18 0 18.36 0 0 Z " fill="#FBFDFE" transform="translate(320,405)"/>
<path d="M0 0 C91.74 0 183.48 0 278 0 C278 17.82 278 35.64 278 54 C186.26 54 94.52 54 0 54 C0 36.18 0 18.36 0 0 Z " fill="#FBFDFE" transform="translate(320,661)"/>
</svg>
